<?xml version="1.0" standalone="no"?><!DOCTYPE svg PUBLIC "-//W3C//DTD SVG 1.1//EN" "http://www.w3.org/Graphics/SVG/1.1/DTD/svg11.dtd"><svg t="1720799678315" class="icon" viewBox="0 0 1024 1024" version="1.1" xmlns="http://www.w3.org/2000/svg" p-id="3251" xmlns:xlink="http://www.w3.org/1999/xlink" width="200" height="200"><path d="M926.86336 480.84992m-22.40512 0a22.40512 22.40512 0 1 0 44.81024 0 22.40512 22.40512 0 1 0-44.81024 0Z" fill="#E60012" p-id="3252"></path><path d="M511.05792 482.24256L20.7872 251.6992l489.86112-199.82336 490.27072 186.12224-489.86112 244.24448zM97.23904 253.70624l413.42976 194.41664 413.75744-206.29504-413.36832-156.93824-413.81888 168.81664z" fill="#E60012" p-id="3253"></path><path d="M505.56928 883.85536l-351.8464-171.008V391.02464l354.57024 167.23968 354.54976-165.86752v325.79584l-357.2736 165.66272z m-321.1264-190.23872l321.4336 156.24192 326.2464-151.28576V440.68864l-323.87072 151.53152-323.80928-152.73984v254.13632zM916.62336 255.6928h20.48v218.46016h-20.48z" fill="#E60012" p-id="3254"></path></svg>